<svg version="1.1" viewBox="0.0 0.0 336.83989501312334 337.0498687664042" fill="none" stroke="none" stroke-linecap="square" stroke-miterlimit="10" xmlns:xlink="http://www.w3.org/1999/xlink" xmlns="http://www.w3.org/2000/svg"><clipPath id="p.0"><path d="m0 0l336.8399 0l0 337.04987l-336.8399 0l0 -337.04987z" clip-rule="nonzero"/></clipPath><g clip-path="url(#p.0)"><path fill="#000000" fill-opacity="0.0" d="m0 0l336.8399 0l0 337.04987l-336.8399 0z" fill-rule="evenodd"/><path fill="#ff00ff" d="m52.966175 109.15084l56.100674 -56.100674l59.594574 59.59457l59.59456 -59.59457l56.100677 56.100674l-59.594574 59.594566l59.594574 59.594574l-56.100677 56.100662l-59.59456 -59.59456l-59.594574 59.59456l-56.100674 -56.100662l59.59457 -59.594574z" fill-rule="evenodd"/><path stroke="#000000" stroke-width="1.0" stroke-linejoin="round" stroke-linecap="butt" d="m52.966175 109.15084l56.100674 -56.100674l59.594574 59.59457l59.59456 -59.59457l56.100677 56.100674l-59.594574 59.594566l59.594574 59.594574l-56.100677 56.100662l-59.59456 -59.59456l-59.594574 59.59456l-56.100674 -56.100662l59.59457 -59.594574z" fill-rule="evenodd"/></g></svg>