<svg version="1.1" viewBox="0.0 0.0 336.83989501312334 337.0498687664042" fill="none" stroke="none" stroke-linecap="square" stroke-miterlimit="10" xmlns:xlink="http://www.w3.org/1999/xlink" xmlns="http://www.w3.org/2000/svg"><clipPath id="p.0"><path d="m0 0l336.8399 0l0 337.04987l-336.8399 0l0 -337.04987z" clip-rule="nonzero"/></clipPath><g clip-path="url(#p.0)"><path fill="#000000" fill-opacity="0.0" d="m0 0l336.8399 0l0 337.04987l-336.8399 0z" fill-rule="evenodd"/><path fill="#ffffff" d="m3.8771253 167.10352l0 0c0 -90.27029 73.44645 -163.44882 164.04724 -163.44882l0 0c43.50804 0 85.2341 17.220451 115.99892 47.87305c30.764832 30.652596 48.04834 72.22645 48.04834 115.57577l0 0c0 90.270294 -73.44647 163.44882 -164.04726 163.44882l0 0c-90.600784 0 -164.04724 -73.17853 -164.04724 -163.44882z" fill-rule="evenodd"/><path stroke="#000000" stroke-width="1.0" stroke-linejoin="round" stroke-linecap="butt" d="m3.8771253 167.10352l0 0c0 -90.27029 73.44645 -163.44882 164.04724 -163.44882l0 0c43.50804 0 85.2341 17.220451 115.99892 47.87305c30.764832 30.652596 48.04834 72.22645 48.04834 115.57577l0 0c0 90.270294 -73.44647 163.44882 -164.04726 163.44882l0 0c-90.600784 0 -164.04724 -73.17853 -164.04724 -163.44882z" fill-rule="evenodd"/><path fill="#cccccc" d="m0 167.87401l0 0c0 -92.71425 75.15976 -167.87401 167.87401 -167.87401l0 0c44.522964 0 87.22238 17.686676 118.70485 49.16916c31.482513 31.48249 49.16916 74.1819 49.16916 118.70485l0 0c0 92.71428 -75.15973 167.87401 -167.87401 167.87401l0 0c-92.71425 0 -167.87401 -75.15973 -167.87401 -167.87401zm47.911243 0l0 0c0 66.25362 53.709164 119.96278 119.96277 119.96278c66.25362 0 119.96278 -53.709167 119.96278 -119.96278c0 -66.2536 -53.709167 -119.96277 -119.96278 -119.96277l0 0c-66.2536 0 -119.96277 53.709164 -119.96277 119.96277z" fill-rule="evenodd"/><path stroke="#000000" stroke-width="1.0" stroke-linejoin="round" stroke-linecap="butt" d="m0 167.87401l0 0c0 -92.71425 75.15976 -167.87401 167.87401 -167.87401l0 0c44.522964 0 87.22238 17.686676 118.70485 49.16916c31.482513 31.48249 49.16916 74.1819 49.16916 118.70485l0 0c0 92.71428 -75.15973 167.87401 -167.87401 167.87401l0 0c-92.71425 0 -167.87401 -75.15973 -167.87401 -167.87401zm47.911243 0l0 0c0 66.25362 53.709164 119.96278 119.96277 119.96278c66.25362 0 119.96278 -53.709167 119.96278 -119.96278c0 -66.2536 -53.709167 -119.96277 -119.96278 -119.96277l0 0c-66.2536 0 -119.96277 53.709164 -119.96277 119.96277z" fill-rule="evenodd"/></g></svg>